# xmcd
#
# Track frame offsets: 
#        150
#        21897
#        49122
#        66830
#        91655
#        119365
#        140592
#        162227
#
# Disc length: 2325 seconds
#
# Revision: 1
# Processed by: cddbd v1.5.2PL0 Copyright (c) Steve Scherf et al.
# Submitted via: ExactAudioCopy v1.3
#
DISCID=66091308
DTITLE=伊藤君子 - The way we were
DYEAR=1983
DGENRE=Jazz
TTITLE0=Our love is here to stay
TTITLE1=Angel eyes
TTITLE2=How insensitive
TTITLE3=Body and soul
TTITLE4=The way we were
TTITLE5=I only have eyes for you
TTITLE6=What's new
TTITLE7=Bluesette
EXTD=YEAR: 1983
EXTT0=
EXTT1=
EXTT2=
EXTT3=
EXTT4=
EXTT5=
EXTT6=
EXTT7=
PLAYORDER=
